# xmcd
#
# Track frame offsets:
#	150
#	16371
#	29254
#	43793
#	63257
#	79394
#	90341
#	97632
#	108685
#	119740
#	143072
#	162019
#	174949
#
# Disc length: 2532 seconds
#
# Revision: 0
# Processed by: cddbd v1.4PL0 Copyright (c) Steve Scherf et al.
# Submitted via: dBpowerAMP V4.0
#
DISCID=9d09e20d
DTITLE=B and the BUZZ - Is You Is
DYEAR=2000
DGENRE=Blues
TTITLE0=Is You Is or Is You Ain't My Baby
TTITLE1=(You Dyed Your Hair) Chartreuse
TTITLE2=Let's Eat Home
TTITLE3=Anaconda D'Amore
TTITLE4=Azure Te
TTITLE5=The Kind Of Love
TTITLE6=That Chick's Too Young To Fry
TTITLE7=Eating Fish
TTITLE8=If It's Love You Want Baby That's Me
TTITLE9=Kiss Me Baby
TTITLE10=Samba Senza Mobili
TTITLE11=Z's
TTITLE12=One More Song
EXTD=
EXTT0=
EXTT1=
EXTT2=
EXTT3=
EXTT4=
EXTT5=
EXTT6=
EXTT7=
EXTT8=
EXTT9=
EXTT10=
EXTT11=
EXTT12=
PLAYORDER=
